<svg xmlns="http://www.w3.org/2000/svg" width="400.5" height="101.033" viewBox="0 0 400.5 101.033">
  <defs>
    <style>
      .cls-1 {
        fill: #3f8fd6;
      }

      .cls-2 {
        fill: none;
        stroke: #000;
        stroke-linecap: round;
        stroke-linejoin: round;
        stroke-width: 2.5px;
      }

      .cls-3 {
        fill: #ec624d;
      }
    </style>
  </defs>
  <g id="그룹_205" data-name="그룹 205" transform="translate(-1271.342 -5191.372)">
    <path id="패스_7" data-name="패스 7" class="cls-1" d="M-542.043,606.035a23.675,23.675,0,0,1,11.022,2.335,18.073,18.073,0,0,1,7.239,6.959,35.339,35.339,0,0,1,4.062,11.536,105.147,105.147,0,0,1,1.589,16.159h6.725V609.4q0-3.362,3.83-3.362h7.379q3.734,0,3.736,3.362v86.589q0,3.268-3.456,3.269h-7.566q-3.923,0-3.923-3.456V657.782h-6.631a132.976,132.976,0,0,1-1.589,18.168,41.951,41.951,0,0,1-4.109,12.984,19.12,19.12,0,0,1-7.286,7.752,21.874,21.874,0,0,1-11.022,2.569q-7.285,0-12.049-3.036a20.469,20.469,0,0,1-7.52-9.06,51.723,51.723,0,0,1-3.876-15.039,172,172,0,0,1-1.121-20.97,134.915,134.915,0,0,1,1.261-19.662,46.727,46.727,0,0,1,4.11-14.1,20.259,20.259,0,0,1,7.566-8.5,22.125,22.125,0,0,1,11.629-2.849m10.088,45.116q0-7.938-.373-13.918a48.537,48.537,0,0,0-1.495-9.947,13.43,13.43,0,0,0-3.082-5.931,6.828,6.828,0,0,0-5.044-1.962,6.944,6.944,0,0,0-5.137,1.962,13.083,13.083,0,0,0-3.036,5.931,50.993,50.993,0,0,0-1.449,9.947q-.374,5.979-.373,13.918,0,17.468,2.055,26.2t7.939,8.734A6.358,6.358,0,0,0-537,683.891a15.648,15.648,0,0,0,3.082-6.586,60.912,60.912,0,0,0,1.541-10.929q.42-6.536.42-15.225" transform="translate(1848.536 4590.125)"/>
    <path id="패스_8" data-name="패스 8" class="cls-2" d="M-542.043,606.035a23.675,23.675,0,0,1,11.022,2.335,18.073,18.073,0,0,1,7.239,6.959,35.339,35.339,0,0,1,4.062,11.536,105.147,105.147,0,0,1,1.589,16.159h6.725V609.4q0-3.362,3.83-3.362h7.379q3.734,0,3.736,3.362v86.589q0,3.268-3.456,3.269h-7.566q-3.923,0-3.923-3.456V657.782h-6.631a132.976,132.976,0,0,1-1.589,18.168,41.951,41.951,0,0,1-4.109,12.984,19.12,19.12,0,0,1-7.286,7.752,21.874,21.874,0,0,1-11.022,2.569q-7.285,0-12.049-3.036a20.469,20.469,0,0,1-7.52-9.06,51.723,51.723,0,0,1-3.876-15.039,172,172,0,0,1-1.121-20.97,134.915,134.915,0,0,1,1.261-19.662,46.727,46.727,0,0,1,4.11-14.1,20.259,20.259,0,0,1,7.566-8.5A22.125,22.125,0,0,1-542.043,606.035Zm10.088,45.116q0-7.938-.373-13.918a48.537,48.537,0,0,0-1.495-9.947,13.43,13.43,0,0,0-3.082-5.931,6.828,6.828,0,0,0-5.044-1.962,6.944,6.944,0,0,0-5.137,1.962,13.083,13.083,0,0,0-3.036,5.931,50.993,50.993,0,0,0-1.449,9.947q-.374,5.979-.373,13.918,0,17.468,2.055,26.2t7.939,8.734A6.358,6.358,0,0,0-537,683.891a15.648,15.648,0,0,0,3.082-6.586,60.912,60.912,0,0,0,1.541-10.929Q-531.955,659.84-531.955,651.151Z" transform="translate(1848.536 4590.125)"/>
    <path id="패스_9" data-name="패스 9" class="cls-1" d="M-446.7,644.593q-28.956,0-29.05-14.385a13.181,13.181,0,0,1,4.017-9.995h-4.39q-3.737,0-3.737-4.017v-4.483q0-4.764,4.017-4.764h20.456v-2.522q0-2.894,3.083-2.9h11.676q2.8,0,2.8,2.9v2.522H-416.8q4.3,0,4.3,4.016v5.418q0,3.831-3.923,3.83h-4.577q3.923,3.643,3.923,9.995,0,14.386-29.611,14.385m-29.05,17q-4.111,0-4.11-4.11v-5.137q0-3.828,4.2-3.83h59.221q3.923,0,3.923,4.11v5.23q0,3.737-3.83,3.737Zm29.611,4.484q33.626,0,33.627,17.094,0,16.72-33.627,16.72-33.721,0-33.721-16.814,0-17,33.721-17m0,22.418q19.146,0,19.148-5.418,0-5.511-19.148-5.51-19.336,0-19.335,5.51,0,5.419,19.335,5.418m0-68.374q-13.359,0-13.358,7.472,0,6.073,13.358,6.071,13.543,0,13.544-5.978,0-7.565-13.544-7.566" transform="translate(1842.764 4591.264)"/>
    <path id="패스_10" data-name="패스 10" class="cls-2" d="M-446.7,644.593q-28.956,0-29.05-14.385a13.181,13.181,0,0,1,4.017-9.995h-4.39q-3.737,0-3.737-4.017v-4.483q0-4.764,4.017-4.764h20.456v-2.522q0-2.894,3.083-2.9h11.676q2.8,0,2.8,2.9v2.522H-416.8q4.3,0,4.3,4.016v5.418q0,3.831-3.923,3.83h-4.577q3.923,3.643,3.923,9.995Q-417.084,644.594-446.7,644.593Zm-29.05,17q-4.111,0-4.11-4.11v-5.137q0-3.828,4.2-3.83h59.221q3.923,0,3.923,4.11v5.23q0,3.737-3.83,3.737Zm29.611,4.484q33.626,0,33.627,17.094,0,16.72-33.627,16.72-33.721,0-33.721-16.814Q-479.855,666.077-446.134,666.076Zm0,22.418q19.146,0,19.148-5.418,0-5.511-19.148-5.51-19.336,0-19.335,5.51Q-465.469,688.5-446.134,688.495Zm0-68.374q-13.359,0-13.358,7.472,0,6.073,13.358,6.071,13.543,0,13.544-5.978Q-432.59,620.121-446.134,620.12Z" transform="translate(1842.764 4591.264)"/>
    <path id="패스_11" data-name="패스 11" class="cls-1" d="M-392.965,672.107q-3.737,0-3.737-3.177v-3.642q0-3.734,3.457-3.736h62.115q3.925,0,3.923,3.362v16.534q0,3.362-4.017,3.362h-51.187v3.736h51.561q3.642,0,3.642,3.176v3.363q0,4.014-3.457,4.017h-61.742q-4.3,0-4.3-3.257V679.286q0-3.349,4.017-3.35h51.28v-3.829Zm30.918-66.973q34.839,0,34.841,17.935,0,16.626-27.649,17.747v3.269h24.006q3.642,0,3.642,4.016v5.886q0,3.642-3.923,3.642h-61.275q-4.2,0-4.2-4.017v-5.23q0-4.3,4.2-4.3h22.884v-3.269q-27.088-1.213-27.088-17.747,0-17.935,34.561-17.935m0,24.473q20.363,0,20.363-6.538,0-6.353-20.363-6.352-20.085,0-20.083,6.352,0,6.539,20.083,6.538" transform="translate(1837.232 4590.531)"/>
    <path id="패스_12" data-name="패스 12" class="cls-2" d="M-392.965,672.107q-3.737,0-3.737-3.177v-3.642q0-3.734,3.457-3.736h62.115q3.925,0,3.923,3.362v16.534q0,3.362-4.017,3.362h-51.187v3.736h51.561q3.642,0,3.642,3.176v3.363q0,4.014-3.457,4.017h-61.742q-4.3,0-4.3-3.257V679.286q0-3.349,4.017-3.35h51.28v-3.829Zm30.918-66.973q34.839,0,34.841,17.935,0,16.626-27.649,17.747v3.269h24.006q3.642,0,3.642,4.016v5.886q0,3.642-3.923,3.642h-61.275q-4.2,0-4.2-4.017v-5.23q0-4.3,4.2-4.3h22.884v-3.269q-27.088-1.213-27.088-17.747Q-396.609,605.134-362.048,605.134Zm0,24.473q20.363,0,20.363-6.538,0-6.353-20.363-6.352-20.085,0-20.083,6.352Q-382.13,629.608-362.048,629.607Z" transform="translate(1837.232 4590.531)"/>
    <path id="패스_13" data-name="패스 13" class="cls-1" d="M-241.893,658.243q-.094,4.017-4.2,4.2h-5.7q-4.483,0-4.484-3.362v-4.2a169.858,169.858,0,0,1-49.413,7.006q-4.857,0-4.857-3.737V628.633q0-3.174,3.456-3.176h27.462V620.32h-26.434q-4.392,0-4.39-3.337v-4.914q0-4.077,3.55-4.078h36.8q4.485,0,4.484,3.725v21.324q0,4.934-5.23,4.934h-25.968V649q22.885-1.122,40.539-7.753V609.2q.092-3.269,4.484-3.27h5.51q4.39,0,4.39,3.363Zm.187,37.083q0,3.923-4.3,3.922h-59.782q-3.923,0-3.922-3.176V669.359q0-3.454,4.3-3.457H-246q4.294,0,4.3,3.457Zm-14.572-7.474v-10.18h-38.951V688.04Z" transform="translate(1831.501 4590.164)"/>
    <path id="패스_14" data-name="패스 14" class="cls-2" d="M-241.893,658.243q-.094,4.017-4.2,4.2h-5.7q-4.483,0-4.484-3.362v-4.2a169.858,169.858,0,0,1-49.413,7.006q-4.857,0-4.857-3.737V628.633q0-3.174,3.456-3.176h27.462V620.32h-26.434q-4.392,0-4.39-3.337v-4.914q0-4.077,3.55-4.078h36.8q4.485,0,4.484,3.725v21.324q0,4.934-5.23,4.934h-25.968V649q22.885-1.122,40.539-7.753V609.2q.092-3.269,4.484-3.27h5.51q4.39,0,4.39,3.363Zm.187,37.083q0,3.923-4.3,3.922h-59.782q-3.923,0-3.922-3.176V669.359q0-3.454,4.3-3.457H-246q4.294,0,4.3,3.457Zm-14.572-7.474v-10.18h-38.951V688.04Z" transform="translate(1831.501 4590.164)"/>
    <path id="패스_15" data-name="패스 15" class="cls-1" d="M-182.646,651.985h3.363q3.827,0,3.829,2.895v6.539q0,3.082-3.737,3.082h-43.247q-3.456,0-3.456-3.55v-5.418q0-3.548,3.269-3.548h2.989V620.6h-2.989q-3.272,0-3.269-3.642v-5.324q0-3.643,3.456-3.643h43.247q3.736,0,3.737,3.176v6.446q0,2.991-3.829,2.988h-3.363ZM-221.41,683.37q-3.645,0-3.642-3.269v-6.166q0-3.548,3.735-3.55h62.4q3.642,0,3.642,3.27v22.232q0,3.268-3.363,3.269h-7.939q-3.362,0-3.361-3.269V683.37ZM-204.6,651.8h6.911V620.786H-204.6Zm49.226,9.621q0,3.55-3.738,3.549h-7.658q-3.645,0-3.642-3.362V609.2q0-3.269,3.547-3.269h7.848q3.642,0,3.643,3.269Z" transform="translate(1825.869 4590.224)"/>
    <path id="패스_16" data-name="패스 16" class="cls-2" d="M-182.646,651.985h3.363q3.827,0,3.829,2.895v6.539q0,3.082-3.737,3.082h-43.247q-3.456,0-3.456-3.55v-5.418q0-3.548,3.269-3.548h2.989V620.6h-2.989q-3.272,0-3.269-3.642v-5.324q0-3.643,3.456-3.643h43.247q3.736,0,3.737,3.176v6.446q0,2.991-3.829,2.988h-3.363ZM-221.41,683.37q-3.645,0-3.642-3.269v-6.166q0-3.548,3.735-3.55h62.4q3.642,0,3.642,3.27v22.232q0,3.268-3.363,3.269h-7.939q-3.362,0-3.361-3.269V683.37ZM-204.6,651.8h6.911V620.786H-204.6Zm49.226,9.621q0,3.55-3.738,3.549h-7.658q-3.645,0-3.642-3.362V609.2q0-3.269,3.547-3.269h7.848q3.642,0,3.643,3.269Z" transform="translate(1825.869 4590.224)"/>
    <path id="패스_17" data-name="패스 17" class="cls-3" d="M-552.043,596.035a23.675,23.675,0,0,1,11.022,2.335,18.073,18.073,0,0,1,7.239,6.959,35.34,35.34,0,0,1,4.062,11.536,105.147,105.147,0,0,1,1.589,16.159h6.725V599.4q0-3.362,3.83-3.362h7.379q3.734,0,3.736,3.362v86.589q0,3.268-3.456,3.269h-7.566q-3.923,0-3.923-3.456V647.782h-6.631a132.976,132.976,0,0,1-1.589,18.168,41.951,41.951,0,0,1-4.109,12.984,19.12,19.12,0,0,1-7.286,7.752,21.873,21.873,0,0,1-11.022,2.569q-7.285,0-12.049-3.036a20.469,20.469,0,0,1-7.52-9.06,51.723,51.723,0,0,1-3.876-15.039,172,172,0,0,1-1.121-20.97,134.915,134.915,0,0,1,1.261-19.662,46.727,46.727,0,0,1,4.11-14.1,20.259,20.259,0,0,1,7.566-8.5,22.125,22.125,0,0,1,11.629-2.849m10.088,45.116q0-7.938-.373-13.918a48.537,48.537,0,0,0-1.495-9.947,13.43,13.43,0,0,0-3.082-5.931,6.828,6.828,0,0,0-5.044-1.962,6.944,6.944,0,0,0-5.137,1.962,13.083,13.083,0,0,0-3.036,5.931,50.993,50.993,0,0,0-1.449,9.947q-.374,5.979-.373,13.918,0,17.468,2.055,26.2t7.939,8.734A6.358,6.358,0,0,0-547,673.891a15.647,15.647,0,0,0,3.082-6.586,60.912,60.912,0,0,0,1.541-10.929q.42-6.536.42-15.225" transform="translate(1849.201 4599.896)"/>
    <path id="패스_18" data-name="패스 18" class="cls-2" d="M-552.043,596.035a23.675,23.675,0,0,1,11.022,2.335,18.073,18.073,0,0,1,7.239,6.959,35.34,35.34,0,0,1,4.062,11.536,105.147,105.147,0,0,1,1.589,16.159h6.725V599.4q0-3.362,3.83-3.362h7.379q3.734,0,3.736,3.362v86.589q0,3.268-3.456,3.269h-7.566q-3.923,0-3.923-3.456V647.782h-6.631a132.976,132.976,0,0,1-1.589,18.168,41.951,41.951,0,0,1-4.109,12.984,19.12,19.12,0,0,1-7.286,7.752,21.873,21.873,0,0,1-11.022,2.569q-7.285,0-12.049-3.036a20.469,20.469,0,0,1-7.52-9.06,51.723,51.723,0,0,1-3.876-15.039,172,172,0,0,1-1.121-20.97,134.915,134.915,0,0,1,1.261-19.662,46.727,46.727,0,0,1,4.11-14.1,20.259,20.259,0,0,1,7.566-8.5A22.125,22.125,0,0,1-552.043,596.035Zm10.088,45.116q0-7.938-.373-13.918a48.537,48.537,0,0,0-1.495-9.947,13.43,13.43,0,0,0-3.082-5.931,6.828,6.828,0,0,0-5.044-1.962,6.944,6.944,0,0,0-5.137,1.962,13.083,13.083,0,0,0-3.036,5.931,50.993,50.993,0,0,0-1.449,9.947q-.374,5.979-.373,13.918,0,17.468,2.055,26.2t7.939,8.734A6.358,6.358,0,0,0-547,673.891a15.647,15.647,0,0,0,3.082-6.586,60.912,60.912,0,0,0,1.541-10.929Q-541.955,649.84-541.955,641.151Z" transform="translate(1849.201 4599.896)"/>
    <path id="패스_19" data-name="패스 19" class="cls-3" d="M-456.7,634.593q-28.956,0-29.05-14.385a13.181,13.181,0,0,1,4.017-9.995h-4.39q-3.737,0-3.737-4.017v-4.483q0-4.764,4.017-4.764h20.456v-2.522q0-2.894,3.083-2.9h11.676q2.8,0,2.8,2.9v2.522H-426.8q4.3,0,4.3,4.016v5.418q0,3.831-3.923,3.83h-4.577q3.923,3.643,3.923,9.995,0,14.386-29.611,14.385m-29.05,17q-4.111,0-4.11-4.11v-5.137q0-3.828,4.2-3.83h59.221q3.923,0,3.923,4.11v5.231q0,3.737-3.83,3.736Zm29.611,4.484q33.626,0,33.627,17.094,0,16.72-33.627,16.72-33.721,0-33.721-16.814,0-17,33.721-17m0,22.418q19.147,0,19.148-5.418,0-5.511-19.148-5.51-19.336,0-19.335,5.51,0,5.419,19.335,5.418m0-68.374q-13.359,0-13.358,7.472,0,6.073,13.358,6.071,13.543,0,13.544-5.978,0-7.565-13.544-7.566" transform="translate(1843.429 4601.09)"/>
    <path id="패스_20" data-name="패스 20" class="cls-2" d="M-456.7,634.593q-28.956,0-29.05-14.385a13.181,13.181,0,0,1,4.017-9.995h-4.39q-3.737,0-3.737-4.017v-4.483q0-4.764,4.017-4.764h20.456v-2.522q0-2.894,3.083-2.9h11.676q2.8,0,2.8,2.9v2.522H-426.8q4.3,0,4.3,4.016v5.418q0,3.831-3.923,3.83h-4.577q3.923,3.643,3.923,9.995Q-427.084,634.594-456.7,634.593Zm-29.05,17q-4.111,0-4.11-4.11v-5.137q0-3.828,4.2-3.83h59.221q3.923,0,3.923,4.11v5.231q0,3.737-3.83,3.736Zm29.611,4.484q33.626,0,33.627,17.094,0,16.72-33.627,16.72-33.721,0-33.721-16.814Q-489.855,656.077-456.134,656.076Zm0,22.418q19.147,0,19.148-5.418,0-5.511-19.148-5.51-19.336,0-19.335,5.51Q-475.469,678.5-456.134,678.495Zm0-68.374q-13.359,0-13.358,7.472,0,6.073,13.358,6.071,13.543,0,13.544-5.978Q-442.59,610.121-456.134,610.12Z" transform="translate(1843.429 4601.09)"/>
    <path id="패스_21" data-name="패스 21" class="cls-3" d="M-402.965,662.107q-3.737,0-3.737-3.177v-3.642q0-3.734,3.457-3.736h62.115q3.925,0,3.923,3.362v16.534q0,3.362-4.017,3.362h-51.187v3.736h51.561q3.642,0,3.642,3.176v3.363q0,4.014-3.457,4.017h-61.742q-4.3,0-4.3-3.257V669.286q0-3.349,4.017-3.35h51.279v-3.829Zm30.918-66.973q34.839,0,34.841,17.935,0,16.626-27.649,17.747v3.269h24.006q3.642,0,3.642,4.016v5.886q0,3.642-3.923,3.642h-61.275q-4.2,0-4.2-4.017v-5.23q0-4.3,4.2-4.3h22.884v-3.269q-27.088-1.213-27.088-17.747,0-17.935,34.561-17.935m0,24.473q20.363,0,20.363-6.538,0-6.353-20.363-6.352-20.085,0-20.083,6.352,0,6.539,20.083,6.538" transform="translate(1837.898 4600.309)"/>
    <path id="패스_22" data-name="패스 22" class="cls-2" d="M-402.965,662.107q-3.737,0-3.737-3.177v-3.642q0-3.734,3.457-3.736h62.115q3.925,0,3.923,3.362v16.534q0,3.362-4.017,3.362h-51.187v3.736h51.561q3.642,0,3.642,3.176v3.363q0,4.014-3.457,4.017h-61.742q-4.3,0-4.3-3.257V669.286q0-3.349,4.017-3.35h51.279v-3.829Zm30.918-66.973q34.839,0,34.841,17.935,0,16.626-27.649,17.747v3.269h24.006q3.642,0,3.642,4.016v5.886q0,3.642-3.923,3.642h-61.275q-4.2,0-4.2-4.017v-5.23q0-4.3,4.2-4.3h22.884v-3.269q-27.088-1.213-27.088-17.747Q-406.609,595.134-372.048,595.134Zm0,24.473q20.363,0,20.363-6.538,0-6.353-20.363-6.352-20.085,0-20.083,6.352Q-392.13,619.608-372.048,619.607Z" transform="translate(1837.898 4600.309)"/>
    <path id="패스_23" data-name="패스 23" class="cls-3" d="M-251.893,648.243q-.094,4.017-4.2,4.2h-5.7q-4.483,0-4.484-3.362v-4.2a169.858,169.858,0,0,1-49.413,7.006q-4.857,0-4.857-3.737V618.633q0-3.174,3.456-3.176h27.462V610.32h-26.434q-4.392,0-4.39-3.337v-4.914q0-4.077,3.55-4.078h36.8q4.485,0,4.484,3.725v21.324q0,4.934-5.23,4.934h-25.968V639q22.885-1.122,40.539-7.753V599.2q.092-3.269,4.484-3.27h5.51q4.39,0,4.39,3.363Zm.187,37.083q0,3.923-4.3,3.922h-59.782q-3.923,0-3.922-3.176V659.359q0-3.454,4.3-3.457H-256q4.294,0,4.3,3.457Zm-14.572-7.474v-10.18h-38.951V678.04Z" transform="translate(1832.166 4599.935)"/>
    <path id="패스_24" data-name="패스 24" class="cls-2" d="M-251.893,648.243q-.094,4.017-4.2,4.2h-5.7q-4.483,0-4.484-3.362v-4.2a169.858,169.858,0,0,1-49.413,7.006q-4.857,0-4.857-3.737V618.633q0-3.174,3.456-3.176h27.462V610.32h-26.434q-4.392,0-4.39-3.337v-4.914q0-4.077,3.55-4.078h36.8q4.485,0,4.484,3.725v21.324q0,4.934-5.23,4.934h-25.968V639q22.885-1.122,40.539-7.753V599.2q.092-3.269,4.484-3.27h5.51q4.39,0,4.39,3.363Zm.187,37.083q0,3.923-4.3,3.922h-59.782q-3.923,0-3.922-3.176V659.359q0-3.454,4.3-3.457H-256q4.294,0,4.3,3.457Zm-14.572-7.474v-10.18h-38.951V678.04Z" transform="translate(1832.166 4599.935)"/>
    <path id="패스_25" data-name="패스 25" class="cls-3" d="M-192.646,641.985h3.363q3.827,0,3.829,2.895v6.539q0,3.082-3.737,3.082h-43.247q-3.456,0-3.456-3.549v-5.418q0-3.549,3.269-3.549h2.989V610.6h-2.989q-3.272,0-3.269-3.642v-5.324q0-3.643,3.456-3.643h43.247q3.736,0,3.737,3.176v6.446q0,2.991-3.829,2.988h-3.363ZM-231.41,673.37q-3.645,0-3.642-3.269v-6.166q0-3.548,3.735-3.55h62.4q3.642,0,3.642,3.27v22.232q0,3.268-3.363,3.269h-7.939q-3.362,0-3.361-3.269V673.37ZM-214.6,641.8h6.911V610.786H-214.6Zm49.226,9.621q0,3.55-3.738,3.549h-7.658q-3.645,0-3.642-3.362V599.2q0-3.269,3.547-3.269h7.848q3.642,0,3.643,3.269Z" transform="translate(1826.535 4599.993)"/>
    <path id="패스_26" data-name="패스 26" class="cls-2" d="M-192.646,641.985h3.363q3.827,0,3.829,2.895v6.539q0,3.082-3.737,3.082h-43.247q-3.456,0-3.456-3.549v-5.418q0-3.549,3.269-3.549h2.989V610.6h-2.989q-3.272,0-3.269-3.642v-5.324q0-3.643,3.456-3.643h43.247q3.736,0,3.737,3.176v6.446q0,2.991-3.829,2.988h-3.363ZM-231.41,673.37q-3.645,0-3.642-3.269v-6.166q0-3.548,3.735-3.55h62.4q3.642,0,3.642,3.27v22.232q0,3.268-3.363,3.269h-7.939q-3.362,0-3.361-3.269V673.37ZM-214.6,641.8h6.911V610.786H-214.6Zm49.226,9.621q0,3.55-3.738,3.549h-7.658q-3.645,0-3.642-3.362V599.2q0-3.269,3.547-3.269h7.848q3.642,0,3.643,3.269Z" transform="translate(1826.535 4599.993)"/>
  </g>
</svg>
