<svg xmlns="http://www.w3.org/2000/svg" width="120" height="120" viewBox="0 0 120 120">
  <defs>
    <style>
      .cls-1 {
        fill: #5d4443;
      }

      .cls-2 {
        fill: #fff;
      }
    </style>
  </defs>
  <g id="그룹_269" data-name="그룹 269" transform="translate(-1621 -2237)">
    <g id="avatar" transform="translate(931 1875)">
      <circle id="타원_13" data-name="타원 13" class="cls-1" cx="60" cy="60" r="60" transform="translate(690 362)"/>
    </g>
    <g id="pen-and-brush" transform="translate(1646.227 2262.23)">
      <g id="그룹_209" data-name="그룹 209" transform="translate(0.002 0)">
        <path id="패스_5471" data-name="패스 5471" class="cls-2" d="M69.372,66.688,60.458,46.25c-.007-.015-.015-.029-.022-.045a1.985,1.985,0,0,0-.371-.544c-.012-.012-.022-.025-.034-.037L49.116,34.709c6.151-5.7,12.962-13.279,17.134-20.485,3.6-6.218,4.25-10.546,1.932-12.864S61.536-.309,55.318,3.291c-7.2,4.17-14.78,10.978-20.485,17.134L17.393,2.986a10.186,10.186,0,0,0-14.4,14.4L22.464,36.867a26.615,26.615,0,0,0-2.421,5.647c-.071.262-.129.516-.181.765A10.2,10.2,0,0,0,9.41,45.726,19.25,19.25,0,0,0,5.852,67.819,2.349,2.349,0,0,0,7.97,69.537,2.038,2.038,0,0,0,10.007,67.5a4.2,4.2,0,0,1,3.829-4.215c3.334-.186,5.617-.04,8.35-1.829a10.191,10.191,0,0,0,4.077-11.776c.249-.052.5-.112.765-.183a26.608,26.608,0,0,0,5.647-2.421L45.626,60.029a2.058,2.058,0,0,0,.582.4l.044.022L66.691,69.37a2.037,2.037,0,0,0,2.682-2.682ZM57.359,6.817C62.223,4,64.861,3.8,65.3,4.24c.27.27.625,2.411-2.577,7.942A64.454,64.454,0,0,1,57.611,19.6L49.943,11.93A64.478,64.478,0,0,1,57.359,6.817ZM46.784,14.533l8.223,8.223q-1.3,1.515-2.723,3.039l-8.54-8.54Q45.266,15.841,46.784,14.533Zm-36.61,4.281L5.869,14.509a6.111,6.111,0,0,1,8.643-8.643l4.305,4.305Zm5.774,5.75-2.881-2.881L21.7,13.052l2.881,2.881Zm2.869,2.893,8.643-8.643,4.651,4.651a93.8,93.8,0,0,0-7.479,9.807Zm1.137,30.59c-1.674,1.1-2.888.977-6.345,1.169a7.991,7.991,0,0,0-5.465,2.626,15.233,15.233,0,0,1,4.147-13.236,6.112,6.112,0,1,1,7.663,9.441ZM31.325,43.163c-5.1,2.909-7.213,2.781-7.506,2.567h0c-1.137-1.546,3.826-12.476,16.994-25.644l8.643,8.643A93.637,93.637,0,0,1,31.325,43.163Zm4.944,1.746a93.786,93.786,0,0,0,9.807-7.479l9.634,9.634-8.643,8.643ZM50.62,57.915l7.3-7.3,5.645,12.943Z" transform="translate(-0.002 0)"/>
      </g>
    </g>
  </g>
</svg>
